<?xml version="1.0" standalone="no"?><!DOCTYPE svg PUBLIC "-//W3C//DTD SVG 1.1//EN" "http://www.w3.org/Graphics/SVG/1.1/DTD/svg11.dtd"><svg t="1653067284473" class="icon" viewBox="0 0 1024 1024" version="1.1" xmlns="http://www.w3.org/2000/svg" p-id="3098" xmlns:xlink="http://www.w3.org/1999/xlink" width="200" height="200"><defs><style type="text/css">@font-face { font-family: feedback-iconfont; src: url("//at.alicdn.com/t/font_1031158_u69w8yhxdu.woff2?t=1630033759944") format("woff2"), url("//at.alicdn.com/t/font_1031158_u69w8yhxdu.woff?t=1630033759944") format("woff"), url("//at.alicdn.com/t/font_1031158_u69w8yhxdu.ttf?t=1630033759944") format("truetype"); }
</style></defs><path d="M505.465646 507.089509m-503.824996 0a503.824996 503.824996 0 1 0 1007.649993 0 503.824996 503.824996 0 1 0-1007.649993 0Z" fill="#F65D5D" p-id="3099" data-spm-anchor-id="a313x.7781069.0.i0" class="selected"></path><path d="M740.251542 378.761305h-10.341222v-51.923643a55.303783 55.303783 0 0 0-27.861059-44.996028S646.912811 254.265043 512.075327 254.265043c-134.820751 0-190.040868 27.576592-190.040868 27.576591a55.303783 55.303783 0 0 0-27.861059 44.996028v51.923643h-10.374688A31.224466 31.224466 0 0 0 252.64118 409.835171v31.140799a31.224466 31.224466 0 0 0 31.140799 31.157532h10.357955v212.681116c0.066933 13.169161 8.366684 24.899253 20.782844 29.333595v17.352503a41.498754 41.498754 0 1 0 82.997508 0v-15.528566h228.176215v15.528566a41.498754 41.498754 0 1 0 82.997508 0v-17.352503a31.324866 31.324866 0 0 0 20.782844-29.333595V472.133502h10.357955A31.224466 31.224466 0 0 0 771.375607 440.97597v-31.140799a31.324866 31.324866 0 0 0-31.140799-31.073866h0.016734zM408.261508 306.138485a10.424889 10.424889 0 0 1 10.374688-10.374688h186.744394c5.722812 0.0502 10.324488 4.66861 10.374689 10.374688v20.699177a10.408155 10.408155 0 0 1-10.374689 10.424889H418.636196a10.408155 10.408155 0 0 1-10.341221-10.424889V306.138485H408.261508zM361.608876 674.439929a25.970188 25.970188 0 1 1-0.033467-51.923643 25.970188 25.970188 0 0 1 0.033467 51.923643z m300.799035 0a25.970188 25.970188 0 1 1 0-51.923643 25.970188 25.970188 0 0 1 0 51.923643z m25.970188-119.308918a10.424889 10.424889 0 0 1-10.357955 10.357955h-331.990034a10.424889 10.424889 0 0 1-10.424889-10.357955v-165.995017a10.424889 10.424889 0 0 1 10.424889-10.374689h331.990034c5.706079 0.0502 10.324488 4.66861 10.357955 10.374689v165.995017z" fill="#FFFFFF" p-id="3100"></path></svg>