<?xml version="1.0" standalone="no"?><!DOCTYPE svg PUBLIC "-//W3C//DTD SVG 1.1//EN" "http://www.w3.org/Graphics/SVG/1.1/DTD/svg11.dtd"><svg t="1653034095150" class="icon" viewBox="0 0 1024 1024" version="1.1" xmlns="http://www.w3.org/2000/svg" p-id="2602" xmlns:xlink="http://www.w3.org/1999/xlink" width="200" height="200"><defs><style type="text/css">@font-face { font-family: feedback-iconfont; src: url("//at.alicdn.com/t/font_1031158_u69w8yhxdu.woff2?t=1630033759944") format("woff2"), url("//at.alicdn.com/t/font_1031158_u69w8yhxdu.woff?t=1630033759944") format("woff"), url("//at.alicdn.com/t/font_1031158_u69w8yhxdu.ttf?t=1630033759944") format("truetype"); }
</style></defs><path d="M841.50495 386.281188V197.70297A126.935446 126.935446 0 0 0 714.772277 70.970297h-405.544554A126.935446 126.935446 0 0 0 182.49505 197.70297v188.578218A126.834059 126.834059 0 0 0 70.970297 512v314.29703A126.935446 126.935446 0 0 0 197.70297 953.029703h628.59406A126.935446 126.935446 0 0 0 953.029703 826.29703v-314.29703a126.834059 126.834059 0 0 0-111.524753-125.718812z m60.831684 123.488317l-60.831684 35.890693V437.481188a76.14099 76.14099 0 0 1 60.831684 72.288317zM309.227723 121.663366h405.544554a76.039604 76.039604 0 0 1 76.039604 76.039604v377.967525L529.134257 729.980198a34.471287 34.471287 0 0 1-34.674059 0L233.188119 579.725941V197.70297a76.039604 76.039604 0 0 1 76.039604-76.039604zM182.49505 437.481188V550.526733l-60.831684-35.079604v-3.447129a76.242376 76.242376 0 0 1 60.831684-74.518812zM826.29703 902.336634h-628.59406a76.039604 76.039604 0 0 1-76.039604-76.039604V573.946931l347.450297 200.440396a86.076832 86.076832 0 0 0 42.480792 11.355247 84.657426 84.657426 0 0 0 43.291882-11.862178L902.336634 568.674851V826.29703a76.039604 76.039604 0 0 1-76.039604 76.039604z" fill="#54B5E7" p-id="2603"></path><path d="M461.306931 294.019802h202.772277a25.346535 25.346535 0 0 0 0-50.693069h-202.772277a25.346535 25.346535 0 0 0 0 50.693069zM359.920792 415.683168h304.158416a25.346535 25.346535 0 0 0 0-50.693069h-304.158416a25.346535 25.346535 0 0 0 0 50.693069zM359.920792 537.346535h304.158416a25.346535 25.346535 0 0 0 0-50.69307h-304.158416a25.346535 25.346535 0 0 0 0 50.69307z" fill="#54B5E7" p-id="2604"></path></svg>