<?xml version="1.0" standalone="no"?><!DOCTYPE svg PUBLIC "-//W3C//DTD SVG 1.1//EN" "http://www.w3.org/Graphics/SVG/1.1/DTD/svg11.dtd"><svg t="1652968915426" class="icon" viewBox="0 0 1024 1024" version="1.1" xmlns="http://www.w3.org/2000/svg" p-id="21494" xmlns:xlink="http://www.w3.org/1999/xlink" width="200" height="200"><defs><style type="text/css">@font-face { font-family: feedback-iconfont; src: url("//at.alicdn.com/t/font_1031158_u69w8yhxdu.woff2?t=1630033759944") format("woff2"), url("//at.alicdn.com/t/font_1031158_u69w8yhxdu.woff?t=1630033759944") format("woff"), url("//at.alicdn.com/t/font_1031158_u69w8yhxdu.ttf?t=1630033759944") format("truetype"); }
</style></defs><path d="M682.666667 512c53.638095-48.761905 87.771429-117.028571 87.771428-190.171429 0-141.409524-117.028571-258.438095-258.438095-258.438095S253.561905 180.419048 253.561905 321.828571c0 78.019048 34.133333 146.285714 87.771428 190.171429-180.419048 68.266667-307.2 243.809524-307.2 448.609524h97.52381c0-209.67619 170.666667-380.342857 380.342857-380.342857 39.009524 0 73.142857 4.87619 112.152381 14.628571L487.619048 746.057143c-107.27619 9.752381-195.047619 102.4-195.047619 214.552381h97.523809c0-68.266667 53.638095-121.904762 121.904762-121.904762s121.904762 53.638095 121.904762 121.904762h97.523809c0-87.771429-53.638095-165.790476-126.780952-199.92381l112.152381-126.780952c107.27619 68.266667 175.542857 185.295238 175.542857 321.828571h97.52381c0-199.92381-126.780952-375.466667-307.2-443.733333zM351.085714 321.828571c0-87.771429 73.142857-160.914286 160.914286-160.914285s160.914286 73.142857 160.914286 160.914285c0 87.771429-68.266667 160.914286-156.038096 160.914286-92.647619-4.87619-165.790476-73.142857-165.790476-160.914286z" p-id="21495" fill="#C77332"></path></svg>