<?xml version="1.0" standalone="no"?><!DOCTYPE svg PUBLIC "-//W3C//DTD SVG 1.1//EN" "http://www.w3.org/Graphics/SVG/1.1/DTD/svg11.dtd"><svg t="1653198823412" class="icon" viewBox="0 0 1024 1024" version="1.1" xmlns="http://www.w3.org/2000/svg" p-id="3059" xmlns:xlink="http://www.w3.org/1999/xlink" width="200" height="200"><defs><style type="text/css">@font-face { font-family: feedback-iconfont; src: url("//at.alicdn.com/t/font_1031158_u69w8yhxdu.woff2?t=1630033759944") format("woff2"), url("//at.alicdn.com/t/font_1031158_u69w8yhxdu.woff?t=1630033759944") format("woff"), url("//at.alicdn.com/t/font_1031158_u69w8yhxdu.ttf?t=1630033759944") format("truetype"); }
</style></defs><path d="M512 932.730435c-11.130435 0-22.26087-4.452174-31.165217-13.356522L115.756522 569.878261C100.173913 556.521739 91.269565 534.26087 91.269565 512s8.904348-44.521739 24.486957-57.878261L480.834783 102.4c17.808696-17.808696 46.747826-15.582609 62.330434 2.226087 17.808696 17.808696 15.582609 46.747826-2.226087 62.330435L182.53913 512l360.626087 345.043478c17.808696 17.808696 17.808696 44.521739 2.226087 62.330435-8.904348 8.904348-22.26087 13.356522-33.391304 13.356522zM178.086957 516.452174z m-2.226087-11.130435z" fill="#ffffff" p-id="3060"></path><path d="M888.208696 932.730435c-11.130435 0-22.26087-4.452174-31.165218-13.356522L491.965217 569.878261C476.382609 556.521739 467.478261 534.26087 467.478261 512s8.904348-44.521739 24.486956-57.878261L859.269565 102.4c17.808696-17.808696 46.747826-15.582609 62.330435 2.226087 17.808696 17.808696 15.582609 46.747826-2.226087 62.330435L560.973913 512l360.626087 345.043478c17.808696 17.808696 17.808696 44.521739 2.226087 62.330435-11.130435 8.904348-22.26087 13.356522-35.617391 13.356522z m-333.913044-416.278261z m0-11.130435z" fill="#ffffff" p-id="3061"></path></svg>