<?xml version="1.0" standalone="no"?><!DOCTYPE svg PUBLIC "-//W3C//DTD SVG 1.1//EN" "http://www.w3.org/Graphics/SVG/1.1/DTD/svg11.dtd"><svg t="1652969023452" class="icon" viewBox="0 0 1024 1024" version="1.1" xmlns="http://www.w3.org/2000/svg" p-id="23548" xmlns:xlink="http://www.w3.org/1999/xlink" width="200" height="200"><defs><style type="text/css">@font-face { font-family: feedback-iconfont; src: url("//at.alicdn.com/t/font_1031158_u69w8yhxdu.woff2?t=1630033759944") format("woff2"), url("//at.alicdn.com/t/font_1031158_u69w8yhxdu.woff?t=1630033759944") format("woff"), url("//at.alicdn.com/t/font_1031158_u69w8yhxdu.ttf?t=1630033759944") format("truetype"); }
</style></defs><path d="M934.242232 884.637975 738.287281 695.561689l1.836835-2.302439c52.767807-65.338101 81.829703-147.602709 81.829703-231.593636 0-203.716728-165.742858-369.473913-369.411491-369.473913-203.731054 0-369.505635 165.757185-369.505635 369.473913 0 203.715705 165.774581 369.45754 369.505635 369.45754 89.26607 0 175.511339-32.450063 242.841817-91.288123l2.209318-1.929955 195.485253 186.963159 1.959631 0 0.031722 1.61887c4.947685 3.483334 10.517541 5.319146 16.5837 5.319146 16.180518 0 29.308513-13.192464 29.308513-29.310559C940.96126 896.276037 938.72329 890.239554 934.242232 884.637975zM452.541305 772.413008c-171.358763 0-310.74637-139.388631-310.74637-310.74637 0-171.34239 139.387607-310.700321 310.74637-310.700321 171.309644 0 310.700321 139.357931 310.700321 310.700321C763.241626 633.024377 623.851972 772.413008 452.541305 772.413008z" p-id="23549" fill="#8a8a8a"></path></svg>