<?xml version="1.0" standalone="no"?><!DOCTYPE svg PUBLIC "-//W3C//DTD SVG 1.1//EN" "http://www.w3.org/Graphics/SVG/1.1/DTD/svg11.dtd"><svg t="1653030699565" class="icon" viewBox="0 0 1024 1024" version="1.1" xmlns="http://www.w3.org/2000/svg" p-id="3052" xmlns:xlink="http://www.w3.org/1999/xlink" width="200" height="200"><defs><style type="text/css">@font-face { font-family: feedback-iconfont; src: url("//at.alicdn.com/t/font_1031158_u69w8yhxdu.woff2?t=1630033759944") format("woff2"), url("//at.alicdn.com/t/font_1031158_u69w8yhxdu.woff?t=1630033759944") format("woff"), url("//at.alicdn.com/t/font_1031158_u69w8yhxdu.ttf?t=1630033759944") format("truetype"); }
</style></defs><path d="M909 779H115a50 50 0 0 1-50-50V115a50 50 0 0 1 50-50h794a50 50 0 0 1 50 50v614a50 50 0 0 1-50 50z m-10-634a20 20 0 0 0-20-20H145a20 20 0 0 0-20 20v554a20 20 0 0 0 20 20h734a20 20 0 0 0 20-20V145zM611 521a30 30 0 0 1-42.426 0L434.218 386.645 299.861 521a30 30 0 0 1-42.427-42.426L413 323.012a30 30 0 0 1 42.426 0l134.351 134.35 134.35-134.35a30 30 0 1 1 42.426 42.426zM182 899h660a30 30 0 0 1 0 60H182a30 30 0 0 1 0-60z" fill="#54B5E7" p-id="3053"></path></svg>