<?xml version="1.0" standalone="no"?><!DOCTYPE svg PUBLIC "-//W3C//DTD SVG 1.1//EN" "http://www.w3.org/Graphics/SVG/1.1/DTD/svg11.dtd"><svg t="1652968860383" class="icon" viewBox="0 0 1098 1024" version="1.1" xmlns="http://www.w3.org/2000/svg" p-id="19813" xmlns:xlink="http://www.w3.org/1999/xlink" width="214.453125" height="200"><defs><style type="text/css">@font-face { font-family: feedback-iconfont; src: url("//at.alicdn.com/t/font_1031158_u69w8yhxdu.woff2?t=1630033759944") format("woff2"), url("//at.alicdn.com/t/font_1031158_u69w8yhxdu.woff?t=1630033759944") format("woff"), url("//at.alicdn.com/t/font_1031158_u69w8yhxdu.ttf?t=1630033759944") format("truetype"); }
</style></defs><path d="M985.4884 1023.949559h-872.626965A22.067878 22.067878 0 0 1 90.793557 1001.932122a22.067878 22.067878 0 0 1 22.067878-22.067879h872.626965a22.067878 22.067878 0 0 1 0 44.135757zM1076.281957 771.089503h-1054.214079A22.067878 22.067878 0 0 1 0 749.021625V22.118319A22.067878 22.067878 0 0 1 22.067878 0.050441h1054.214079a22.067878 22.067878 0 0 1 22.067878 22.067878v726.903306a22.067878 22.067878 0 0 1-22.067878 22.067878z m-1032.1462-44.135757h1010.078321V44.135757H44.135757z" p-id="19814" fill="#C77332"></path><path d="M171.662874 510.713758a22.004827 22.004827 0 0 1-15.598838-6.469041 22.067878 22.067878 0 0 1 0-31.210285l237.072066-237.072066a22.067878 22.067878 0 0 1 31.210285 0l221.460618 221.473228 269.379439-269.379439a22.067878 22.067878 0 0 1 31.210285 0 22.067878 22.067878 0 0 1 0 31.210285l-284.990887 284.990887a22.067878 22.067878 0 0 1-31.210285 0L408.734939 282.784099 187.261711 504.257327a22.004827 22.004827 0 0 1-15.598837 6.456431z" p-id="19815" fill="#C77332"></path></svg>